<?xml version="1.0" encoding="UTF-8" standalone="no"?>
<!-- Created with Inkscape (http://www.inkscape.org/) -->

<svg
   version="1.1"
   id="svg2"
   width="666.66669"
   height="666.66669"
   viewBox="0 0 666.66669 666.66669"
   sodipodi:docname="2271294_288068-P72RKQ-99.svg"
   inkscape:version="1.2.2 (732a01da63, 2022-12-09)"
   xmlns:inkscape="http://www.inkscape.org/namespaces/inkscape"
   xmlns:sodipodi="http://sodipodi.sourceforge.net/DTD/sodipodi-0.dtd"
   xmlns="http://www.w3.org/2000/svg"
   xmlns:svg="http://www.w3.org/2000/svg">
  <defs
     id="defs6" />
  <sodipodi:namedview
     id="namedview4"
     pagecolor="#ffffff"
     bordercolor="#000000"
     borderopacity="0.25"
     inkscape:showpageshadow="2"
     inkscape:pageopacity="0.0"
     inkscape:pagecheckerboard="0"
     inkscape:deskcolor="#d1d1d1"
     showgrid="false"
     inkscape:zoom="0.59927298"
     inkscape:cx="111.80214"
     inkscape:cy="210.25477"
     inkscape:window-width="1366"
     inkscape:window-height="745"
     inkscape:window-x="-8"
     inkscape:window-y="-8"
     inkscape:window-maximized="1"
     inkscape:current-layer="g10" />
  <g
     id="g8"
     inkscape:groupmode="layer"
     inkscape:label="ink_ext_XXXXXX"
     transform="matrix(1.3333333,0,0,-1.3333333,0,666.66667)">
    <g
       id="g10"
       transform="scale(0.1)">
      <path
         d="m 2654.4266,734.21731 c -4.0556,0 -10.8883,1.27804 -10.9867,9.90517 -3.6622,284.66942 11.1341,590.72232 45.151,935.60942 31.0181,314.0654 63.0931,638.7735 173.9673,932.07 2.4086,6.3904 7.5948,7.7423 11.5274,7.7423 4.252,0 8.4059,-1.7206 10.1017,-4.1538 0.3933,-0.5654 1.4257,-2.0154 -0.1224,-6.12 -118.2723,-312.812 -151.0109,-671.9302 -177.31,-960.5076 -32.0998,-352.4327 -45.4706,-640.0024 -42.0295,-905.10738 0.024,-2.9494 -0.6883,-5.1123 -2.1384,-6.58693 -1.7204,-1.76973 -4.842,-2.85118 -8.16,-2.85118"
         style="fill:#483721;fill-opacity:1;fill-rule:nonzero;stroke:none;stroke-width:2.45786"
         id="path94" />
      <path
         d="m 2678.5382,129.75547 c -2.5809,0 -11.0113,0.73739 -11.2079,10.02818 -8.7992,445.95428 -53.606,898.61855 -96.9626,1336.41275 -29.1748,294.5008 -59.2836,598.5875 -78.1353,897.3158 -0.1722,2.7528 0.3193,4.7437 1.4746,5.9235 1.4501,1.5731 4.2766,2.5316 7.3982,2.5316 1.9908,0 11.8224,-0.5162 12.4368,-10.6917 18.901,-299.4166 49.0343,-603.8226 78.1845,-898.2007 43.3074,-437.1552 88.0651,-889.18043 96.8888,-1333.97953 0.05,-2.94941 -0.6143,-5.0632 -2.0399,-6.53783 -1.7206,-1.74509 -4.7438,-2.80207 -8.0372,-2.80207"
         style="fill:#483721;fill-opacity:1;fill-rule:nonzero;stroke:none;stroke-width:2.45786"
         id="path96" />
      <path
         d="m 2680.1358,129.90296 c -2.0155,0 -12.0436,0.51616 -12.8301,10.86377 -94.3328,1253.26327 -59.6031,2425.76147 103.1565,3484.87827 0.7618,4.6945 2.4085,5.5301 5.6038,5.5301 4.1293,0 8.6272,-2.1138 11.4046,-5.3827 2.4087,-2.7282 3.2688,-5.9479 2.6545,-9.8314 C 2626.0383,2548.4874 2592.8571,1410.8664 2688.64,138.11228 c 0.1966,-2.7037 -0.2213,-4.64539 -1.3027,-5.80058 -1.401,-1.49925 -4.1292,-2.40874 -7.2015,-2.40874"
         style="fill:#483721;fill-opacity:1;fill-rule:nonzero;stroke:none;stroke-width:2.45786"
         id="path98" />
      <path
         d="m 2523.0538,4488.772 c -231.2847,223.0016 -565.7749,71.745 -686.9967,-150.2736 -232.0959,100.551 -588.9035,14.1573 -634.1528,-303.9145 -98.978,-695.8943 1017.063,-809.8406 1017.063,-809.8406 0,0 810.0372,776.1187 304.0865,1264.0287"
         style="fill:#95b8d1;fill-opacity:1;fill-rule:nonzero;stroke:none;stroke-width:2.45786"
         id="path100" />
      <path
         d="m 3505.0677,4499.3162 c -121.7625,297.3029 -488.844,293.6898 -689.2826,139.3361 -171.9028,185.5687 -533.2575,250.3086 -702.85,-22.5385 -371.0633,-596.9899 604.4126,-1151.0655 604.4126,-1151.0655 0,0 1054.1521,383.8196 787.72,1034.2679"
         style="fill:#eb254f;fill-opacity:1;fill-rule:nonzero;stroke:none;stroke-width:2.45786"
         id="path102" />
      <path
         d="m 3505.0677,4499.3162 c -121.7625,297.3029 -488.844,293.6898 -689.2826,139.3361 -171.9028,185.5687 -533.2575,250.3086 -702.85,-22.5385 -371.0633,-596.9899 604.4126,-1151.0655 604.4126,-1151.0655 0,0 1054.1521,383.8196 787.72,1034.2679"
         style="fill:#edafb8;fill-opacity:1;fill-rule:nonzero;stroke:none;stroke-width:2.45786"
         id="path104" />
      <path
         d="m 3505.0677,4499.3162 c -84.5504,206.4358 -287.3732,267.6856 -470.5575,234.2097 59.1607,-102.7878 93.202,-221.8958 93.202,-349.0164 0,-387.0148 -313.7213,-700.7115 -700.7115,-700.7115 -4.375,0 -8.6762,0.2212 -13.0022,0.295 157.4752,-136.141 303.3492,-219.0447 303.3492,-219.0447 0,0 1054.1521,383.8441 787.72,1034.2679"
         style="fill:#eda7b3;fill-opacity:1;fill-rule:nonzero;stroke:none;stroke-width:2.45786"
         id="path106" />
      <path
         d="m 2570.7363,3670.7221 c -268.128,176.9414 -569.3389,-32.9108 -647.9166,-273.3633 -246.5973,56.4079 -581.5546,-93.7673 -567.8888,-414.7395 29.8875,-702.26 1147.9685,-610.2377 1147.9685,-610.2377 0,0 654.5039,911.1537 67.8369,1298.3405"
         style="fill:#edafb8;fill-opacity:1;fill-rule:nonzero;stroke:none;stroke-width:2.45786"
         id="path108" />
      <path
         d="m 2570.7363,3670.7221 c -187.633,123.8271 -391.3652,58.1285 -523.7701,-74.8173 278.0578,-94.0623 478.3244,-356.9305 478.3244,-666.7438 0,-226.8115 -107.4086,-428.4299 -273.9778,-557.1727 146.513,-8.2091 251.5866,0.3933 251.5866,0.3933 0,0 654.5039,911.1537 67.8369,1298.3405"
         style="fill:#eda7b3;fill-opacity:1;fill-rule:nonzero;stroke:none;stroke-width:2.45786"
         id="path110" />
      <path
         d="m 3933.817,3175.5368 c -2.9496,321.2424 -345.2066,453.9424 -588.584,384.8519 -90.8672,236.0776 -402.4993,430.1258 -661.1401,239.5432 -565.8979,-416.9269 134.7646,-1293.0806 134.7646,-1293.0806 0,0 1121.3254,-34.189 1114.9595,668.6855"
         style="fill:#95b8d1;fill-opacity:1;fill-rule:nonzero;stroke:none;stroke-width:2.45786"
         id="path112" />
      <path
         d="m 2859.7562,2620.3061 c -80.3966,12.0927 -155.3614,-55.9901 -142.6788,-115.9127 12.6334,-59.9227 87.9914,-6.0709 112.3734,-36.106 24.4066,-30.0597 61.9873,-85.3615 85.7547,-53.778 23.7676,31.5836 77.1278,185.8635 -55.4493,205.7967"
         style="fill:#f8a21a;fill-opacity:1;fill-rule:nonzero;stroke:none;stroke-width:2.45786"
         id="path114" />
      <path
         d="m 2454.4795,2406.3739 c -61.7415,-52.9178 -59.3081,-154.1325 -5.7022,-183.7743 53.6059,-29.6173 62.1593,62.6017 100.846,61.3727 38.6867,-1.2043 105.0982,-8.9712 96.7906,29.6911 -8.3322,38.6376 -90.1052,179.9154 -191.9344,92.7105"
         style="fill:#d41b32;fill-opacity:1;fill-rule:nonzero;stroke:none;stroke-width:2.45786"
         id="path116" />
      <path
         d="m 2910.4128,3749.8652 c -104.3117,-13.7885 -209.1886,-71.8678 -241.3374,-177.9983 -14.1819,-46.7977 58.8658,-66.6571 72.9739,-20.1053 21.408,70.7128 98.6339,113.2338 168.3635,122.4507 47.6333,6.2921 48.2479,82.0434 0,75.6529 v 0"
         style="fill:#ffffff;fill-opacity:1;fill-rule:nonzero;stroke:none;stroke-width:2.45786"
         id="path118" />
      <path
         d="m 2631.9371,3444.3778 c -2.4333,-5.2599 -4.6699,-10.5935 -6.833,-15.9516 -0.3931,-1.0569 -4.9402,-12.5597 -2.261,-6.8082 -8.7255,-18.7044 -5.4566,-40.6286 13.5428,-51.7627 16.5414,-9.684 43.0616,-5.1369 51.787,13.5674 2.4333,5.2352 4.6454,10.569 6.8083,15.9516 0.4424,1.057 4.9404,12.535 2.2859,6.8082 8.7008,18.7043 5.4564,40.6285 -13.5675,51.7626 -16.5414,9.684 -43.0616,5.1124 -51.7625,-13.5673 v 0"
         style="fill:#ffffff;fill-opacity:1;fill-rule:nonzero;stroke:none;stroke-width:2.45786"
         id="path120" />
      <path
         d="m 2245.2909,4495.5067 c 60.0457,73.3424 129.9472,102.3207 223.5917,107.261 48.5427,2.556 48.7639,78.2336 0,75.6775 -112.3242,-5.9236 -204.5678,-40.8251 -277.0992,-129.431 -30.6495,-37.4333 22.5632,-91.3096 53.5075,-53.5075 v 0"
         style="fill:#ffffff;fill-opacity:1;fill-rule:nonzero;stroke:none;stroke-width:2.45786"
         id="path122" />
      <path
         d="m 2596.3473,4575.4608 c 48.7886,0 48.7886,75.6529 0,75.6529 -48.8132,0 -48.8132,-75.6529 0,-75.6529 v 0"
         style="fill:#ffffff;fill-opacity:1;fill-rule:nonzero;stroke:none;stroke-width:2.45786"
         id="path124" />
      <path
         d="m 1522.6799,3201.6886 c -77.0539,-70.4916 -122.1311,-207.7139 -60.5372,-300.744 26.7907,-40.481 92.3418,-2.6299 65.33,38.1706 -43.2338,65.3054 -4.1046,160.7687 48.7147,209.0657 36.057,33.0091 -17.5981,86.3693 -53.5075,53.5077 v 0"
         style="fill:#ffffff;fill-opacity:1;fill-rule:nonzero;stroke:none;stroke-width:2.45786"
         id="path126" />
      <path
         d="m 1375.9947,4207.6911 c -94.6522,-52.6721 -126.5061,-178.5391 -128.5216,-279.1148 -0.983,-48.8131 74.6945,-48.7147 75.6776,0 1.4502,73.2689 20.8918,174.7539 91.0391,213.7847 42.6441,23.6939 4.4734,89.073 -38.1951,65.3301 v 0"
         style="fill:#ffffff;fill-opacity:1;fill-rule:nonzero;stroke:none;stroke-width:2.45786"
         id="path128" />
      <path
         d="m 3585.2922,3567.1478 c 7.521,-41.3903 11.6748,-83.9605 11.6748,-127.5137 0,-390.505 -316.5478,-707.0529 -707.0529,-707.0529 -86.9836,0 -170.256,15.7794 -247.2116,44.5118 88.3356,-160.3753 176.155,-270.2417 176.155,-270.2417 0,0 1121.3254,-34.189 1114.9595,668.6855 -2.0401,222.3873 -166.6923,354.3253 -348.5248,391.611"
         style="fill:#8ab4d1;fill-opacity:1;fill-rule:nonzero;stroke:none;stroke-width:2.45786"
         id="path130" />
    </g>
  </g>
</svg>
