<?xml version="1.0" encoding="UTF-8" standalone="no"?>
<!-- Created with Inkscape (http://www.inkscape.org/) -->

<svg
   version="1.1"
   id="svg2"
   width="2933.3333"
   height="2933.3333"
   viewBox="0 0 2933.3333 2933.3333"
   sodipodi:docname="colourful_abstract_shapes.eps"
   xmlns:inkscape="http://www.inkscape.org/namespaces/inkscape"
   xmlns:sodipodi="http://sodipodi.sourceforge.net/DTD/sodipodi-0.dtd"
   xmlns="http://www.w3.org/2000/svg"
   xmlns:svg="http://www.w3.org/2000/svg">
  <defs
     id="defs6" />
  <sodipodi:namedview
     id="namedview4"
     pagecolor="#ffffff"
     bordercolor="#000000"
     borderopacity="0.25"
     inkscape:showpageshadow="2"
     inkscape:pageopacity="0.0"
     inkscape:pagecheckerboard="0"
     inkscape:deskcolor="#d1d1d1" />
  <g
     id="g8"
     inkscape:groupmode="layer"
     inkscape:label="ink_ext_XXXXXX"
     transform="matrix(1.3333333,0,0,-1.3333333,0,2933.3333)">
    <g
       id="g10"
       transform="scale(0.1)">
      <path
         d="M 0,0 H 22000 V 22000 H 0 V 0"
         style="fill:#ffffff;fill-opacity:1;fill-rule:nonzero;stroke:none"
         id="path12" />
      <path
         d="m 6035.64,18647.3 c 0,-501.7 -262.92,-942 -658.53,-1190.5 -275.14,-172.8 -530.67,-374.3 -770.47,-593.6 -202.81,-185.4 -472.85,-298.5 -769.34,-298.5 -201.01,0 -389.88,52 -553.9,143.3 -263.96,146.9 -554.19,239.4 -853.59,279.7 -517.99,69.7 -1228.62,354 -1228.62,1360.4 0,355.8 117.04,682.4 326.13,935.8 176.98,214.5 323.57,451.9 448.52,700.3 291.49,579.5 891.57,977.1 1584.6,977.1 563.67,0 1065.84,-263 1390.49,-673 152.54,-192.6 325.27,-368.9 521.86,-516.3 341.73,-256.3 562.85,-664.6 562.85,-1124.7"
         style="fill:#df43a9;fill-opacity:1;fill-rule:nonzero;stroke:none"
         id="path14" />
      <path
         d="m 2604.47,15016.6 c -257.95,947.9 -1779.935,299.7 -1463.37,-630.3 177.27,-520.9 354.09,-1270.1 354.09,-2187.1 0,-877.8 -162.05,-1451.1 -331.42,-1810.6 -168.129,-356.8 -75.03,-781.9 229.25,-1033 v 0 c 256.33,-211.4 612.05,-257.5 912.37,-115.3 538.59,255 1030.36,902.5 1117.47,2028.3 119.44,1543.5 -358.63,2058.4 -818.39,3748"
         style="fill:#f36740;fill-opacity:1;fill-rule:nonzero;stroke:none"
         id="path16" />
      <path
         d="M 5173.87,3646.9 C 5401.51,2526.7 4806.6,1631.2 3893.02,1680.5 c -389.21,21 -780.28,-7.5 -1162.32,-84.8 -896.73,-181.5 -1615.38,618.2 -1552.8,1759.6 22.23,405.4 -7.49,812.6 -88.36,1210.6 -227.642,1120.2 367.27,2015.7 1280.85,1966.4 389.21,-21 780.28,7.5 1162.32,84.8 896.73,181.5 1615.37,-618.2 1552.8,-1759.6 -22.23,-405.4 7.49,-812.6 88.36,-1210.6"
         style="fill:#e8a535;fill-opacity:1;fill-rule:nonzero;stroke:none"
         id="path18" />
      <path
         d="m 5425.86,13272.3 c 20.14,-77.3 45.57,-153.1 74.64,-227.5 64.74,-165.7 195.2,-724.8 -234.13,-1374 -924.28,-1397.7 643.69,-2393 1865.06,-1270.7 1221.36,1122.3 1386.41,1171.9 2525.25,1568 1138.82,396.1 1436.52,2253.5 -1105.83,3334 -1279.88,543.9 -3614.29,-151.7 -3124.99,-2029.8"
         style="fill:#4a5ab2;fill-opacity:1;fill-rule:nonzero;stroke:none"
         id="path20" />
      <path
         d="m 11321.4,20548.8 c 0,0 -492.1,-131.2 -1345.11,0 -852.98,131.2 -1886.4,-82 -1919.21,-1000.6 -32.8,-918.6 672.55,-2181.7 2460.52,-1361.5 1788,820.2 1935.6,-393.7 3215.1,-377.3 1279.4,16.4 2309.6,2150.5 475.7,3067.4 -689,344.5 -1230.3,213.3 -2887,-328"
         style="fill:#815fb6;fill-opacity:1;fill-rule:nonzero;stroke:none"
         id="path22" />
      <path
         d="m 6383.65,7064.2 c 0,782.1 621.65,1443.9 1644.37,1443.9 1022.72,0 1864.96,1062.8 2687.18,1062.8 1604.2,0 2145.7,-1126.5 2145.7,-2089 0,-962.6 -541.5,-2089.1 -2727.3,-2089.1 -2185.79,0 -3749.95,167.4 -3749.95,1671.4"
         style="fill:#3346a3;fill-opacity:1;fill-rule:nonzero;stroke:none"
         id="path24" />
      <path
         d="m 15109,15779.9 c -337.5,383 -832.1,624.3 -1383,623.2 -1010.7,-2.2 -1844.4,-847.5 -1833.2,-1858.1 1.1,-98.1 9.8,-194.3 25.7,-288.1 46.7,-275.6 32.4,-558.8 -55.4,-824.1 -45,-135.8 -70.2,-280.6 -72.1,-431.1 -10.3,-794 635.8,-1448.9 1429.9,-1448.9 177.2,0 346.8,32.3 503.3,91.1 306.4,115.3 631.6,171.4 958.9,168.2 6.3,-0.1 12.5,-0.1 18.8,-0.1 1017,0 1857.9,842.7 1855.9,1859.7 -1.3,623.1 -309.7,1174.1 -781.8,1509.7 -244.4,173.7 -468.8,373.5 -667,598.5"
         style="fill:#d7e834;fill-opacity:1;fill-rule:nonzero;stroke:none"
         id="path26" />
      <path
         d="m 6720.86,2745.6 c 0,-857.3 1249.96,-1204.1 2434.48,-975.1 1184.56,229.1 1852.76,-837.699 3043.06,-837.699 2735.5,0 1151.8,2943.499 -654.4,3179.099 -1806.22,235.6 -4823.14,256.7 -4823.14,-1366.3"
         style="fill:#f689ab;fill-opacity:1;fill-rule:nonzero;stroke:none"
         id="path28" />
      <path
         d="M 17353.9,7372.9 C 16277.2,7014 16459,5868.4 15351.2,5642.1 14130.9,5392.8 13664.9,4399.2 14160.9,3472.8 c 495.9,-926.3 2142.9,-251.5 2855.8,-1189.8 1094.8,-1441 3115.8,-511.2 3115.8,739.2 0,1796.5 982.9,1319.1 805.1,2788.1 -135.4,1119.4 -1983.6,2096 -3583.7,1562.6"
         style="fill:#6bcba0;fill-opacity:1;fill-rule:nonzero;stroke:none"
         id="path30" />
      <path
         d="M 20031.4,9750.3 C 18938.9,9442 17973.3,9871.3 17150,8724.7 16326.7,7578.2 14973.7,7599 14437.9,8580 c -417.6,764.7 -190.8,1695.6 1400,2326.5 1590.9,630.8 1425.9,1645.8 3192.1,2075.1 2173.2,528.3 2323.5,-2858.1 1001.4,-3231.3"
         style="fill:#65a6df;fill-opacity:1;fill-rule:nonzero;stroke:none"
         id="path32" />
      <path
         d="m 16457.5,16771.4 c -62.8,-1084.9 1390,-2370 3170,-1780 1281.7,424.9 1550,1830 1010,2470 -540,640 10.2,1281 -370,2280 -860,2260 -4340.9,1109.7 -3670,-770 366.7,-1027.6 -94.3,-1410.9 -140,-2200"
         style="fill:#f1416a;fill-opacity:1;fill-rule:nonzero;stroke:none"
         id="path34" />
    </g>
  </g>
</svg>
